<?xml version="1.0" encoding="UTF-8"?>
<svg width="176px" height="30px" viewBox="0 0 176 30" version="1.1" xmlns="http://www.w3.org/2000/svg" xmlns:xlink="http://www.w3.org/1999/xlink">
    <title>l11@1x</title>
    <g id="页面-1" stroke="none" stroke-width="1" fill="none" fill-rule="evenodd">
        <g id="1" transform="translate(-575, -518)">
            <g id="l11" transform="translate(575, 518)">
                <g id="Pro备份-3" transform="translate(153.9729, 9.8676)" fill="#1882F0" fill-rule="nonzero">
                    <path d="M4.34032059,1.08050847 L1.19358816,1.08050847 L1.19358816,5.34851695 L4.34032059,5.34851695 C6.07644883,5.3125 6.96259762,4.57415254 6.99876695,3.13347458 C6.92642828,1.80084746 6.04027949,1.11652542 4.34032059,1.08050847 Z M4.55733662,6.42902542 L1.19358816,6.42902542 L1.19358816,10.8050847 L0,10.8050847 L0,0 L4.66584464,0 C6.87217427,0.108050847 8.0838471,1.17055085 8.30086313,3.1875 C8.26469379,5.3125 7.01685162,6.39300847 4.55733662,6.42902542 Z" id="形状"></path>
                    <path d="M13.7262639,4.21398305 L14.2145499,3.13347458 C13.7805179,2.84533898 13.3464858,2.71927966 12.9124538,2.75529661 C12.0443896,2.79131356 11.4295109,3.31355932 11.0678175,4.3220339 L11.0135635,4.3220339 L11.0135635,2.91737288 L9.87422935,2.91737288 L9.87422935,10.8050847 L11.0135635,10.8050847 L11.0135635,6.53707627 C11.0135635,5.67266949 11.1763255,5.04237288 11.5018496,4.64618644 C11.8997123,4.14194915 12.3156597,3.88983051 12.7496917,3.88983051 C13.0752158,3.88983051 13.4007398,3.99788136 13.7262639,4.21398305 Z" id="路径"></path>
                    <path d="M18.3921085,3.67372881 C16.7283189,3.70974576 15.8783395,4.80826271 15.8421702,6.96927966 C15.8783395,8.98622881 16.7283189,10.0307203 18.3921085,10.1027542 C19.9473901,10.0307203 20.7431155,8.96822034 20.7792848,6.91525424 C20.6707768,4.89830508 19.8750514,3.81779661 18.3921085,3.67372881 Z M18.3378545,10.967161 C15.9868475,10.8230932 14.75709,9.50847458 14.648582,7.02330508 C14.7209207,4.25 15.9868475,2.82733051 18.4463625,2.75529661 C20.7250308,2.86334746 21.918619,4.23199153 22.027127,6.86122881 C21.9909577,9.5625 20.7612002,10.9311441 18.3378545,10.967161 Z" id="形状"></path>
                </g>
                <g id="编组-19备份">
                    <g id="编组-18">
                        <path d="M6.05353678,12.3541057 C6.05353678,14.0183602 4.69806467,15.3675657 3.02608032,15.3675657 C1.35547211,15.3675657 0,14.0183602 0,12.3541057 C0,10.6898512 1.35547211,9.34064571 3.02608032,9.34064571 C4.69806467,9.34064571 6.05353678,10.6898512 6.05353678,12.3541057" id="Fill-641" fill="#00CAFF"></path>
                        <path d="M14.308041,20.1688445 C14.308041,22.055003 12.7722945,23.5836495 10.8774014,23.5836495 C8.98248237,23.5836495 7.4467359,22.055003 7.4467359,20.1688445 C7.4467359,18.282686 8.98248237,16.7540396 10.8774014,16.7540396 C12.7722945,16.7540396 14.308041,18.282686 14.308041,20.1688445" id="Fill-642" fill="#00C7CC"></path>
                        <path d="M10.8586807,0 C13.3659562,0 15.3984893,2.04094344 15.3984893,4.5585438 C15.3984893,7.07617 13.3659562,9.11711344 10.8586807,9.11711344 C8.35137929,9.11711344 6.31887218,7.07617 6.31887218,4.5585438 C6.31887218,2.04094344 8.35137929,0 10.8586807,0" id="Fill-643" fill="#1882F0"></path>
                        <path d="M20.7547644,27.9919312 C20.7547644,29.1014256 19.8520164,30 18.7373689,30 C17.6227213,30 16.7185972,29.1014256 16.7185972,27.9919312 C16.7185972,26.8824369 17.6227213,25.9838625 18.7373689,25.9838625 C19.8520164,25.9838625 20.7547644,26.8824369 20.7547644,27.9919312" id="Fill-644" fill="#A068FF"></path>
                    </g>
                    <path d="M75.2525285,14.9068809 L71.2356532,14.9068809 L71.2783136,14.8192151 C71.4117992,14.5534782 71.9457156,13.6795857 73.2337828,13.5795919 L73.4140312,13.5782221 C74.6126493,13.5782221 75.0626212,14.2590018 75.2305103,14.8288036 L75.2525285,14.9068809 Z M76.8336876,12.738574 C76.0341761,12.0810805 74.8741159,11.689324 73.7291673,11.689324 L73.2461681,11.689324 L73.2310305,11.689324 C71.9773668,11.738636 70.9067557,12.0797107 70.0480702,12.7043295 L70.0343088,12.7152878 C68.7847735,13.7097208 68.1270045,14.9479743 68.0774635,16.3971736 C68.0485645,17.4697098 68.3692052,18.3627793 69.0311026,19.0504078 C70.0109144,20.0694969 71.5783121,20.4530347 72.7177302,20.4722116 L72.7218587,20.4722116 C72.911766,20.4722116 73.0617653,20.4722116 73.2282782,20.444816 C74.786043,20.309208 76.1071116,19.7010266 77.0524939,18.6860469 L77.0690076,18.6682398 C77.170842,18.5600273 77.2520342,18.4655126 77.3249697,18.3737375 C77.3387311,18.3573001 77.3511163,18.339493 77.3607493,18.3216859 C77.5024917,18.1395054 77.6304728,17.9559552 77.740564,17.7724308 C77.7543254,17.7505143 77.7543254,17.721749 77.7419401,17.6984627 C77.7295549,17.6765463 77.7047843,17.6614787 77.6772615,17.6614787 L75.0172345,17.6614787 C74.8906296,17.6614787 74.7709054,17.7162699 74.6869609,17.8093889 C74.5878788,17.9217107 74.4640262,18.031293 74.3291644,18.1258077 C74.0195329,18.3422326 73.6534796,18.4792104 73.2709386,18.5203037 C73.2544249,18.5216735 73.2365351,18.5244131 73.2200214,18.5285224 C73.1140586,18.5531784 73.0025913,18.5531784 72.8636011,18.5531784 C72.2099345,18.5175642 71.6815226,18.2819623 71.3388637,17.8737685 C71.066388,17.5491569 70.9136364,17.1026093 70.9562968,16.7615346 L70.9631775,16.7081132 L77.6896468,16.709483 C77.9235906,16.709483 78.1176264,16.5259327 78.1300117,16.2930705 C78.1479015,15.9479123 78.1382685,15.6054677 78.0983604,15.2739815 C78.006159,14.5192596 77.7130412,13.4659003 76.8336876,12.738574 L76.8336876,12.738574 Z M37.9886259,12.029029 C37.9734883,12.0125916 37.9528462,12.0030032 37.930828,12.0030032 L35.4235525,12.0030032 C35.2116269,12.0030032 35.0299764,12.1536788 34.9900684,12.3605152 L33.4818447,20.29688 C33.4777163,20.3174267 33.4832208,20.3393431 33.4969822,20.3571502 C33.5107436,20.3735876 33.5313857,20.383176 33.553404,20.383176 L36.0620556,20.383176 C36.2739812,20.383176 36.4556317,20.2325004 36.4955397,20.025664 L38.0037634,12.0892992 C38.0078918,12.0687525 38.0023873,12.0454663 37.9886259,12.029029 L37.9886259,12.029029 Z M29.0314852,14.7808614 L29.0314852,14.7808614 L29.0645126,14.7452471 L34.2744755,9.17309342 C34.2882369,9.15939564 34.2964937,9.14021875 34.2964937,9.11967208 C34.2964937,9.07857874 34.2648425,9.04707384 34.2235583,9.04707384 L31.1107811,9.04707384 C30.9910569,9.04707384 30.874085,9.09638585 30.7901405,9.18405165 C30.0415462,9.97164818 26.8200539,13.4535723 26.7870266,13.4891865 L27.6030517,9.13336986 C27.6071802,9.11145341 27.6016756,9.08953696 27.5879142,9.07309963 C27.5727767,9.05666229 27.5521346,9.04707384 27.5301163,9.04707384 L24.8783461,9.04570407 C24.6677967,9.04570407 24.48477,9.19637965 24.444862,9.40184636 L22.3311626,20.2955102 C22.3270342,20.3174267 22.3325387,20.3393431 22.3463001,20.3557805 C22.3600615,20.3735876 22.3807036,20.383176 22.4027219,20.383176 L25.0875194,20.383176 C25.299445,20.383176 25.4810955,20.2325004 25.5210036,20.025664 L26.3356526,15.7218989 L29.3851273,20.1900373 C29.4676957,20.3105778 29.6039336,20.383176 29.7498045,20.383176 L32.6933164,20.383176 C32.7208392,20.383176 32.7456097,20.3681085 32.7579949,20.3448222 C32.7703802,20.3201662 32.7690041,20.2914009 32.7538665,20.2694844 L29.0314852,14.7808614 Z M63.8238661,18.401133 C63.8238661,18.401133 60.4840258,18.6997447 60.6257683,16.2204722 C60.7922812,13.3165945 64.7128527,13.843959 64.7128527,13.843959 L63.8238661,18.401133 Z M68.7462416,9.0744694 C68.7324802,9.05666229 68.7118381,9.04707384 68.6898199,9.04707384 L66.0050223,9.04707384 C65.7944729,9.04707384 65.6128224,9.19637965 65.5729143,9.40321614 L65.0940435,11.861916 C65.0940435,11.861916 60.8652167,11.2866093 58.8918576,13.5535661 C57.0065715,15.7191593 57.0065715,20.3845458 63.0050887,20.3845458 L66.5458454,20.3845458 C66.581625,20.3845458 66.6119001,20.35852 66.6187808,20.3242756 L68.7613792,9.13473964 C68.7655076,9.11282319 68.760003,9.09090674 68.7462416,9.0744694 L68.7462416,9.0744694 Z M81.8523929,14.9068809 L81.8964294,14.8192151 C82.0670708,14.479536 82.6010132,13.6768461 83.8794215,13.5795919 L84.0858425,13.5795919 C85.2596641,13.5795919 85.7082858,14.2590018 85.877551,14.8288036 L85.8995693,14.9068809 L81.8523929,14.9068809 Z M88.7439991,15.2753512 C88.6531738,14.5192596 88.360056,13.4659003 87.4807284,12.738574 C86.6688057,12.0728619 85.5376444,11.6906938 84.3748319,11.689324 L83.8931829,11.689324 L83.8766692,11.6906938 C82.2638589,11.750964 81.2537979,12.2783286 80.6909566,12.7098086 C79.4111722,13.696023 78.7492488,14.9356463 78.721726,16.3971736 C78.6845702,17.4642307 78.9983301,18.3545606 79.6533729,19.0408194 C80.6317826,20.0653875 82.1950518,20.4516649 83.3344699,20.4722116 L83.3482313,20.4722116 L83.3619927,20.4722116 C83.5642854,20.4722116 83.7197892,20.469472 83.8739169,20.444816 C85.4303055,20.3105778 86.7513741,19.7023963 87.6995347,18.6860469 L87.7201768,18.6627606 C87.8192588,18.555918 87.899075,18.4641428 87.9706343,18.3737375 C87.9843957,18.3573001 87.9967809,18.339493 88.0064139,18.3216859 C88.1481564,18.1408752 88.2761114,17.9559552 88.3875788,17.7738005 C88.399964,17.7505143 88.4013402,17.721749 88.3875788,17.6998325 C88.3751935,17.6765463 88.350423,17.6614787 88.3242763,17.6614787 L85.6697539,17.6614787 C85.5403967,17.6614787 85.4179202,17.7176396 85.3339757,17.8162378 C85.210123,17.9586947 84.7450136,18.4340077 83.9179534,18.5203037 C83.9014397,18.5230433 83.8835499,18.5257828 83.8656601,18.5298922 C83.7596973,18.5531784 83.649606,18.5531784 83.5092397,18.5531784 C82.8583514,18.518934 82.3519318,18.302509 82.0037684,17.9134921 C81.6322105,17.4971054 81.5579249,16.9957666 81.5730624,16.7656439 L81.5771909,16.709483 L88.3352855,16.709483 C88.5706054,16.709483 88.763265,16.5273025 88.7756503,16.2930705 C88.7949163,15.949282 88.7839071,15.6068375 88.7439991,15.2753512 L88.7439991,15.2753512 Z M53.7575565,18.3079881 L53.7575565,18.3079881 C53.7369144,18.3134672 53.2250162,18.4463357 52.5961202,18.4463357 C51.1690888,18.4463357 50.3833387,17.7477748 50.3833387,16.4779905 C50.5608348,14.1987315 52.5052949,13.856287 53.6474912,13.856287 C54.1992975,13.856287 54.5942497,13.9329946 54.6121395,13.9357341 L53.7575565,18.3079881 Z M57.8418886,11.9591703 C57.8295034,11.9427329 57.8116135,11.9317747 57.7909714,11.9304049 C56.5841225,11.7934271 55.4763296,11.7249382 54.4992961,11.7249382 C51.8447736,11.7249382 50.7658797,12.2344957 50.3585682,12.4262646 L50.3503113,12.4303739 C47.3228289,14.0836702 47.5237454,16.857419 47.7315425,17.5587454 C48.8420617,21.291313 53.3296029,20.3037289 53.3296029,20.3037289 L53.3020801,20.4037227 C53.1617138,20.9009521 52.9098801,21.2954224 52.5300654,21.6104713 C51.9011953,22.1282474 50.4892755,22.7144866 47.6641117,22.1720803 C47.6352127,22.1666012 47.6049376,22.1638616 47.5746625,22.1638616 C47.4879657,22.1638616 47.402645,22.1885176 47.3310857,22.2364599 C47.2333798,22.3008394 47.1645728,22.4035728 47.1425805,22.5186342 L46.7765272,24.3691526 C46.7737749,24.3883295 46.7779033,24.4088762 46.7889125,24.4253135 C46.7999216,24.4403811 46.8178114,24.4513393 46.8384535,24.4554486 C47.0035903,24.4814744 47.1948479,24.5116095 47.4067734,24.5417446 L47.5154885,24.5568122 C47.5732864,24.5650309 47.6297082,24.5732495 47.6888822,24.5800984 C47.7342948,24.5869473 47.7810836,24.5924264 47.8278723,24.5979055 C47.8719088,24.6033846 47.9159453,24.6088638 47.9599818,24.6143429 C48.649428,24.6978993 49.2714174,24.7376229 49.8631577,24.7376229 C50.8346867,24.7376229 51.7140403,24.6266709 52.4736437,24.4075064 C53.556666,24.0828948 54.3685627,23.5911445 54.9561746,22.9035159 C55.8093555,21.9173016 56.1368769,20.8434214 56.4726551,19.0846523 L57.8542739,12.016701 C57.8584023,11.9961543 57.8542739,11.9756076 57.8418886,11.9591703 L57.8418886,11.9591703 Z M35.3712592,10.8784412 L37.8812869,10.8784412 C38.0932125,10.8784412 38.274863,10.7277657 38.3147711,10.5209292 L38.5803661,9.13336986 C38.5844946,9.11145341 38.57899,9.08953696 38.5652286,9.07309963 C38.5514672,9.05666229 38.5308251,9.04707384 38.5088069,9.04707384 L36.0015054,9.04707384 C35.7895798,9.04707384 35.6079553,9.19637965 35.5680472,9.40321614 L35.2996999,10.7907754 C35.2955715,10.8126919 35.301076,10.8346083 35.3148374,10.8510457 C35.3285988,10.867483 35.3492409,10.8784412 35.3712592,10.8784412 L35.3712592,10.8784412 Z M47.1522135,14.8808552 L47.1576921,14.8233245 L47.1576921,14.8123663 L47.1631966,14.7466169 L47.1797103,14.5247387 C47.1811609,14.5151503 47.1811609,14.504192 47.1811609,14.4946036 C47.186591,13.6631483 46.8866184,12.998806 46.3155202,12.5700913 C46.312768,12.5673517 46.3086395,12.5659819 46.3058873,12.5632424 C45.7003856,12.2358654 45.0412404,12.0687525 44.3462896,12.0687525 C43.4229255,12.0687525 42.5752232,12.3564059 41.9408485,12.6070753 C41.9408485,12.6070753 42.0867194,12.0030032 41.523878,12.0030032 L39.3000615,12.0030032 C39.265658,12.0030032 39.2353829,12.0276592 39.2285022,12.0619036 L37.6377101,20.29688 C37.6335817,20.3174267 37.6390863,20.3393431 37.6528477,20.3571502 C37.6666091,20.3735876 37.6872512,20.383176 37.7092694,20.383176 L40.0762045,20.383176 C40.286754,20.383176 40.4684045,20.2338702 40.5083126,20.0270337 L41.1220451,16.8711168 C41.2692921,16.0492758 41.5032359,15.3863033 41.7949777,14.9548232 C42.1032331,14.4822756 42.6137551,14.1891431 43.1270554,14.1891431 C44.4164728,14.1891431 44.3380328,15.2958979 44.0696854,16.5752448 L44.0683093,16.5834634 L43.3761368,20.29688 C43.3720083,20.3187965 43.378889,20.3407129 43.3926504,20.3571502 C43.4064118,20.3735876 43.4270539,20.383176 43.4490722,20.383176 L44.6848201,20.383176 L45.7595596,20.383176 C45.9701091,20.383176 46.1531357,20.2338702 46.1930438,20.0270337 C46.2013006,19.9818311 47.088911,15.400001 47.0944156,15.3739753 C47.127443,15.1822063 47.1412044,15.0246818 47.1522135,14.8808552 L47.1522135,14.8808552 Z" id="Fill-645" fill="#1882F0"></path>
                    <path d="M114.72867,12.9162906 C115.861005,12.9162906 116.45718,13.4187784 116.551696,14.4545925 L116.564419,14.5997154 L117.582245,14.2496066 L117.574975,14.1625329 C117.480494,12.7131187 116.518979,11.9784686 114.715946,11.9784686 C112.882015,12.052844 111.79145,12.8364731 111.473369,14.3076557 C111.36613,14.7611645 111.429746,15.1620321 111.658765,15.5012567 C112.051368,16.083562 112.912914,16.4735796 114.288809,16.6894498 C115.346622,16.852713 116.011867,17.1338542 116.266332,17.5238718 C116.391747,17.7161595 116.419011,17.9320297 116.348124,18.1932508 C116.140917,19.1619114 115.32848,19.6353746 113.858036,19.6353746 L113.743526,19.6353746 C112.389443,19.6353746 111.702387,19.0440334 111.640589,17.8286297 L111.633318,17.6853209 L110.610039,17.9701245 L110.622762,18.0680824 C110.833605,19.6952378 111.853249,20.5188098 113.650828,20.5188098 C113.690816,20.5188098 113.730803,20.5188098 113.77079,20.5169958 C115.886452,20.4807151 117.106066,19.6934238 117.393248,18.1841806 C117.487764,17.7197876 117.41506,17.3116297 117.178771,16.966963 C116.79162,16.4082743 115.953703,16.0182567 114.686865,15.8078286 C113.479973,15.6119128 112.742059,15.310783 112.498499,14.9135092 C112.402166,14.7502803 112.385808,14.5725048 112.458512,14.3530066 C112.62755,13.3879398 113.370917,12.9162906 114.72867,12.9162906 M124.810425,12.0131064 C126.010012,12.045759 126.86247,12.4756854 127.356825,13.290153 L127.513139,12.1781836 L128.503736,12.1781836 L128.487377,12.3069801 L127.509504,19.2528186 C127.249586,21.8269004 125.893685,23.1311575 123.474484,23.1311575 C123.376333,23.1311575 123.274547,23.1293435 123.172761,23.1257154 C121.847759,23.0858067 120.871704,22.6649505 120.271927,21.8758793 L120.208311,21.7906197 L120.871704,21.2065003 L120.948043,21.2953881 C121.449703,21.8885776 122.233092,22.2059995 123.272729,22.2404662 C123.310899,22.2422802 123.347251,22.2422802 123.385421,22.2422802 C125.277516,22.2422802 126.286289,21.3788337 126.468049,19.6065554 L126.557112,18.9843413 C125.92822,19.7353519 124.935806,20.1162651 123.599899,20.1162651 C122.567532,20.0817985 121.796866,19.7734125 121.309747,19.2002115 C120.746289,18.5399027 120.54817,17.518635 120.720842,16.1617367 C121.195238,13.5568162 122.572985,12.1636713 124.810425,12.0131064 Z M120.208483,12.177636 L120.190307,12.3064325 L119.052484,20.3878228 L118.007394,20.3878228 L118.02557,20.2590263 L119.165176,12.177636 L120.208483,12.177636 Z M124.930353,12.8983556 C123.174578,12.969103 122.131306,14.0466057 121.758696,16.1943893 C121.613288,17.364442 121.769602,18.2260746 122.222186,18.7485167 C122.580255,19.1639308 123.141862,19.379801 123.888898,19.3961273 C125.611956,19.3598466 126.598917,18.4256185 126.898822,16.539056 L127.067826,15.3381989 C127.142348,13.8398057 126.442603,13.0398504 124.930353,12.8983556 Z M120.624338,9.22462613 L119.581065,9.22462613 L119.379311,10.6540517 L120.424401,10.6540517 L120.624338,9.22462613 Z M109.144499,15.8455469 L103.633615,15.7911258 C104.108011,13.7050195 105.440283,12.9631133 106.778042,12.9631133 C107.579573,12.9631133 108.239364,13.1318185 108.635603,13.5707809 C109.093606,14.0768967 109.298995,14.7408336 109.144499,15.8455469 M106.907058,12.1613097 C104.326123,12.2755939 102.92293,13.6868791 102.617572,16.4732031 C102.484921,17.6577681 102.730264,18.6481972 103.320986,19.3357165 C103.908074,20.0195736 104.80412,20.3914509 105.991018,20.4422438 C107.946729,20.4422438 109.25719,19.6531727 109.913347,18.1638497 L108.990036,17.9243971 C108.450207,19.0980779 107.36873,19.6549868 106.069175,19.6713131 C105.238528,19.6821973 104.587859,19.4717692 104.14618,18.9946779 C103.664514,18.4704217 103.453672,17.6704664 103.582722,16.6419084 L110.096925,16.6419084 C110.096925,16.6419084 110.544057,14.2601143 109.386241,13.0937238 C108.819181,12.5241167 108.019434,12.177636 106.907058,12.1613097 M136.069236,12.7064102 C135.665727,12.2456794 135.020477,12.0116689 134.148025,12.0116689 C134.117126,12.0116689 134.084409,12.0134829 134.051692,12.0134829 C132.857558,12.0443215 131.866962,12.5576593 131.098148,13.5390524 L131.281726,12.2311671 L130.292948,12.2311671 L129.160612,20.2599504 L129.142436,20.3887469 L130.131181,20.3887469 L130.836412,15.3875201 C131.305355,13.8165998 132.259565,13.0039119 133.748186,12.8968839 C133.779085,12.8968839 133.808167,12.8968839 133.837248,12.8968839 C134.462471,12.8968839 134.922326,13.060147 135.204055,13.3794173 C135.54213,13.7676208 135.642099,14.4061612 135.500325,15.282306 L134.798729,20.2599504 L134.780552,20.3887469 L135.771149,20.3887469 L136.501793,15.2079306 C136.679918,14.0796349 136.53451,13.2379225 136.069236,12.7064102 M100.69132,14.8092193 C100.255094,18.0091433 98.5847465,19.5891338 95.6838789,19.5510391 L92.8884668,19.5510391 L94.1825692,10.0673995 L97.0343614,10.0673995 C99.8152326,10.1780557 101.03303,11.7598602 100.69132,14.8092193 M97.212487,9.17492841 L93.1883378,9.17492841 L91.6561287,20.3890892 L95.6257154,20.3890892 C99.3045192,20.4634646 101.369287,18.5859723 101.818202,14.7529842 C102.198082,11.1467505 100.664055,9.28558456 97.212487,9.17492841" id="形状结合" fill="#1882F0"></path>
                </g>
                <rect id="矩形备份-9" fill="#1882F0" x="145.256062" y="10.3898305" width="1" height="10.3728814"></rect>
            </g>
        </g>
    </g>
</svg>